<mxfile host="app.diagrams.net" modified="2023-11-23T14:05:57.419Z" agent="Mozilla/5.0 (Windows NT 10.0; Win64; x64; rv:109.0) Gecko/20100101 Firefox/119.0" version="22.1.3" etag="GmjeOSaeltNLDdA7i1hv" type="github">
  <diagram name="Page-1" id="dNXU90C2GVVFEEsE79y2">
    <mxGraphModel>
      <root>
        <mxCell id="0" />
        <mxCell id="1" parent="0" />
      </root>
    </mxGraphModel>
  </diagram>
</mxfile>
